<svg width="10" height="10" viewBox="0 0 10 10" fill="none" xmlns="http://www.w3.org/2000/svg">
<path d="M0.953727 0.953788C0.634484 1.27303 0.634484 1.79067 0.953727 2.10987L3.84398 5.00007L0.953736 7.89027C0.634493 8.20955 0.634493 8.72718 0.953736 9.04638C1.27298 9.36558 1.79061 9.36558 2.10981 9.04638L5.00001 6.1561L7.89021 9.04638C8.20941 9.36558 8.72704 9.36558 9.04624 9.04638C9.36552 8.7271 9.36552 8.20955 9.04624 7.89027L6.15612 5.00007L9.04624 2.10987C9.36552 1.79067 9.36552 1.27303 9.04624 0.953788C8.72704 0.634553 8.20941 0.634553 7.89021 0.953788L5.00001 3.84395L2.10981 0.953788C1.79061 0.634545 1.27297 0.634545 0.953727 0.953788Z" fill="black"/>
</svg>
