<svg width="46" height="36" viewBox="0 0 46 36" fill="none" xmlns="http://www.w3.org/2000/svg">
<path d="M34.4583 0.375C30.3958 0.375 26.0208 1.20833 23 3.5C19.9792 1.20833 15.6042 0.375 11.5417 0.375C8.52083 0.375 5.3125 0.833333 2.625 2.02083C1.10417 2.70833 0.083334 4.1875 0.083334 5.875V29.375C0.083334 32.0833 2.625 34.0833 5.25 33.4167C7.29167 32.8958 9.45833 32.6667 11.5417 32.6667C14.7917 32.6667 18.25 33.2083 21.0417 34.5833C22.2917 35.2083 23.7083 35.2083 24.9375 34.5833C27.7292 33.1875 31.1875 32.6667 34.4375 32.6667C36.5208 32.6667 38.6875 32.8958 40.7292 33.4167C43.3542 34.1042 45.8958 32.1042 45.8958 29.375V5.875C45.8958 4.1875 44.875 2.70833 43.3542 2.02083C40.6875 0.833333 37.4792 0.375 34.4583 0.375V0.375ZM41.75 26.8958C41.75 28.2083 40.5417 29.1667 39.25 28.9375C37.6875 28.6458 36.0625 28.5208 34.4583 28.5208C30.9167 28.5208 25.8125 29.875 23 31.6458V7.66667C25.8125 5.89583 30.9167 4.54167 34.4583 4.54167C36.375 4.54167 38.2708 4.72917 40.0833 5.125C41.0417 5.33333 41.75 6.1875 41.75 7.16667V26.8958Z" fill="#131314"/>
</svg>
