<svg width="42" height="22" viewBox="0 0 42 22" fill="none" xmlns="http://www.w3.org/2000/svg">
<path d="M25.1667 4.75004H39.75C40.8959 4.75004 41.8334 3.81254 41.8334 2.66671C41.8334 1.52087 40.8959 0.583374 39.75 0.583374H25.1667C24.0209 0.583374 23.0834 1.52087 23.0834 2.66671C23.0834 3.81254 24.0209 4.75004 25.1667 4.75004ZM39.75 17.25H25.1667C24.0209 17.25 23.0834 18.1875 23.0834 19.3334C23.0834 20.4792 24.0209 21.4167 25.1667 21.4167H39.75C40.8959 21.4167 41.8334 20.4792 41.8334 19.3334C41.8334 18.1875 40.8959 17.25 39.75 17.25ZM39.75 8.91671H31.4167C30.2709 8.91671 29.3334 9.85421 29.3334 11C29.3334 12.1459 30.2709 13.0834 31.4167 13.0834H39.75C40.8959 13.0834 41.8334 12.1459 41.8334 11C41.8334 9.85421 40.8959 8.91671 39.75 8.91671ZM14.4375 2.35421C13.7917 1.70837 12.6667 2.16671 12.6667 3.10421V8.91671H2.25002C1.10419 8.91671 0.166687 9.85421 0.166687 11C0.166687 12.1459 1.10419 13.0834 2.25002 13.0834H12.6667V18.8959C12.6667 19.8334 13.7917 20.2917 14.4375 19.625L22.3334 11.7292C22.75 11.3125 22.75 10.6667 22.3334 10.25L14.4375 2.35421Z" fill="#131314"/>
</svg>
