<svg width="50" height="50" viewBox="0 0 50 50" fill="none" xmlns="http://www.w3.org/2000/svg">
<path d="M43.75 16.6667C40.7292 16.6667 39.0417 19.6667 39.7292 21.8959L32.3333 29.3125C31.7083 29.125 30.7917 29.125 30.1667 29.3125L24.8542 24C25.5625 21.7709 23.875 18.75 20.8333 18.75C17.8125 18.75 16.1042 21.75 16.8125 24L7.3125 33.4792C5.08333 32.7917 2.08333 34.4792 2.08333 37.5C2.08333 39.7917 3.95833 41.6667 6.25 41.6667C9.27083 41.6667 10.9583 38.6667 10.2708 36.4375L19.75 26.9375C20.375 27.125 21.2917 27.125 21.9167 26.9375L27.2292 32.25C26.5208 34.4792 28.2083 37.5 31.25 37.5C34.2708 37.5 35.9792 34.5 35.2708 32.25L42.6875 24.8542C44.9167 25.5417 47.9167 23.8542 47.9167 20.8334C47.9167 18.5417 46.0417 16.6667 43.75 16.6667Z" fill="#131314"/>
<path d="M31.25 18.75L33.2083 14.4375L37.5 12.5L33.2083 10.5625L31.25 6.25L29.3333 10.5625L25 12.5L29.3333 14.4375L31.25 18.75ZM7.29167 22.9167L8.33333 18.75L12.5 17.7083L8.33333 16.6667L7.29167 12.5L6.25 16.6667L2.08333 17.7083L6.25 18.75L7.29167 22.9167Z" fill="#131314"/>
</svg>
