<svg width="46" height="32" viewBox="0 0 46 32" fill="none" xmlns="http://www.w3.org/2000/svg">
<path d="M23 0.333333C12.5833 0.333333 3.68748 6.8125 0.083313 15.9583C3.68748 25.1042 12.5833 31.5833 23 31.5833C33.4166 31.5833 42.3125 25.1042 45.9166 15.9583C42.3125 6.8125 33.4166 0.333333 23 0.333333ZM23 26.375C17.25 26.375 12.5833 21.7083 12.5833 15.9583C12.5833 10.2083 17.25 5.54167 23 5.54167C28.75 5.54167 33.4166 10.2083 33.4166 15.9583C33.4166 21.7083 28.75 26.375 23 26.375ZM23 9.70833C19.5416 9.70833 16.75 12.5 16.75 15.9583C16.75 19.4167 19.5416 22.2083 23 22.2083C26.4583 22.2083 29.25 19.4167 29.25 15.9583C29.25 12.5 26.4583 9.70833 23 9.70833Z" fill="#131314"/>
</svg>
